<svg width="67" height="100" viewBox="0 0 67 100" fill="none" xmlns="http://www.w3.org/2000/svg">
<path d="M57.1276 9.15154C44.0322 -3.05084 22.917 -3.05084 9.82159 9.15154C-3.27386 21.3539 -3.27386 41.096 9.82159 53.2984C9.82159 53.2984 33.4746 74.9253 33.4746 99.9253C33.4746 74.9253 57.1276 53.2984 57.1276 53.2984C70.2231 41.1952 70.2231 21.3539 57.1276 9.15154Z" fill="white"/>
<path d="M47.6871 45.1645C47.078 41.8907 47.7886 38.3193 47.6871 34.9463C47.5856 31.1764 46.9765 27.5058 46.9765 23.8351C46.9765 20.859 47.4841 17.6844 46.4689 14.8074C46.5704 14.5097 46.5704 14.1129 46.672 13.8153C46.9765 12.3272 42.0023 13.1209 41.2917 14.4105C40.7841 14.8074 40.581 15.3034 40.7841 15.7002C40.8856 15.7994 40.8856 15.8986 40.8856 16.0971C39.972 20.5613 38.6523 24.8272 37.1295 29.1923C36.5204 30.8788 35.9114 32.4661 35.3023 34.0534C34.4901 32.5653 33.678 30.978 32.9674 29.3907C31.0386 24.6288 29.2114 19.7677 26.8765 15.2042C27.1811 13.1209 22.3083 13.3193 21.3947 15.2042C20.278 17.5851 20.3795 19.9661 20.7856 22.4463C21.1917 25.3232 21.2932 28.101 21.2932 30.978C21.3947 36.5336 21.8007 41.9899 21.9023 47.5455C21.3947 48.1407 21.2932 48.7359 21.8007 49.4304C22.0038 49.728 22.3083 49.9264 22.6129 50.224C23.9326 51.2161 27.5871 50.4225 27.5871 48.4383C27.5871 42.6844 27.1811 37.0296 26.978 31.2756C26.978 30.6804 26.978 30.1844 26.978 29.5891C27.0795 29.7875 27.1811 29.9859 27.1811 30.1844C28.0947 32.3669 29.0083 34.5494 30.328 36.6328C31.5462 38.7161 32.1553 40.8986 32.8659 43.0812C32.5614 43.3788 32.4598 43.6764 32.5614 44.0732C32.4598 44.3709 32.6629 44.4701 32.9674 44.5693C33.8811 45.3629 35.6068 44.9661 36.5204 44.5693C36.9265 44.3709 37.3326 44.1724 37.7386 43.974C38.2462 43.6764 38.9568 42.982 38.7538 42.3867C38.7538 42.2875 38.6523 42.0891 38.6523 41.9899C39.3629 40.2042 39.6674 38.4185 40.0735 36.5336C40.4795 34.5494 41.1901 32.6645 41.9007 30.7796C42.0023 31.6724 42.0023 32.4661 42.1038 33.359C42.4083 36.9304 42.1038 40.4026 42.1038 43.974C42.1038 45.1645 42.2053 46.2558 42.4083 47.3471C42.5098 47.8431 42.9159 49.8272 42.8144 49.9264C41.9007 50.7201 42.2053 51.7121 43.322 51.9105C44.6417 52.2082 46.2659 51.8113 47.281 50.9185C48.9053 49.5296 48.0932 47.1486 47.6871 45.1645Z" fill="#6BC6B3"/>
</svg>
